<svg width="32" height="32" viewBox="0 0 32 32" fill="none" xmlns="http://www.w3.org/2000/svg">
<path fill-rule="evenodd" clip-rule="evenodd" d="M14 7.33333C14.7364 7.33333 15.3334 7.93029 15.3334 8.66667C15.3334 13.0849 18.9151 16.6667 23.3334 16.6667C24.0698 16.6667 24.6667 17.2636 24.6667 18C24.6667 18.7364 24.0698 19.3333 23.3334 19.3333C18.9151 19.3333 15.3334 22.9151 15.3334 27.3333C15.3334 28.0697 14.7364 28.6667 14 28.6667C13.2637 28.6667 12.6667 28.0697 12.6667 27.3333C12.6667 22.9151 9.08498 19.3333 4.66671 19.3333C3.93033 19.3333 3.33337 18.7364 3.33337 18C3.33337 17.2636 3.93033 16.6667 4.66671 16.6667C9.08498 16.6667 12.6667 13.0849 12.6667 8.66667C12.6667 7.93029 13.2637 7.33333 14 7.33333ZM14 13.8347C13.03 15.5829 11.5829 17.0299 9.83472 18C11.5829 18.9701 13.03 20.4171 14 22.1653C14.9701 20.4171 16.4171 18.9701 18.1654 18C16.4171 17.0299 14.9701 15.5829 14 13.8347Z" fill="#3C444D"/>
<path fill-rule="evenodd" clip-rule="evenodd" d="M24 3C24.5523 3 25 3.44772 25 4C25 5.65685 26.3432 7 28 7C28.5523 7 29 7.44771 29 8C29 8.55228 28.5523 9 28 9C26.3432 9 25 10.3431 25 12C25 12.5523 24.5523 13 24 13C23.4478 13 23 12.5523 23 12C23 10.3431 21.6569 9 20 9C19.4478 9 19 8.55228 19 8C19 7.44771 19.4478 7 20 7C21.6569 7 23 5.65685 23 4C23 3.44772 23.4478 3 24 3Z" fill="#3C444D"/>
</svg>
