<svg width="36" height="36" viewBox="0 0 36 36" fill="none" xmlns="http://www.w3.org/2000/svg">
<path fill-rule="evenodd" clip-rule="evenodd" d="M18 36C27.9411 36 36 27.9411 36 18C36 8.05887 27.9411 0 18 0C8.05887 0 0 8.05887 0 18C0 27.9411 8.05887 36 18 36ZM23.9999 8.24996C24.4141 8.24996 24.7499 8.58575 24.7499 8.99996C24.7499 10.2426 25.7572 11.25 26.9999 11.25C27.4141 11.25 27.7499 11.5857 27.7499 12C27.7499 12.4142 27.4141 12.75 26.9999 12.75C25.7572 12.75 24.7499 13.7573 24.7499 15C24.7499 15.4142 24.4141 15.75 23.9999 15.75C23.5856 15.75 23.2499 15.4142 23.2499 15C23.2499 13.7573 22.2425 12.75 20.9999 12.75C20.5856 12.75 20.2499 12.4142 20.2499 12C20.2499 11.5857 20.5856 11.25 20.9999 11.25C22.2425 11.25 23.2499 10.2426 23.2499 8.99996C23.2499 8.58575 23.5856 8.24996 23.9999 8.24996ZM16.4999 11.5C17.0521 11.5 17.4999 11.9477 17.4999 12.5C17.4999 15.8137 20.1861 18.5 23.4999 18.5C24.0521 18.5 24.4999 18.9477 24.4999 19.5C24.4999 20.0522 24.0521 20.5 23.4999 20.5C20.1861 20.5 17.4999 23.1863 17.4999 26.5C17.4999 27.0522 17.0521 27.5 16.4999 27.5C15.9476 27.5 15.4999 27.0522 15.4999 26.5C15.4999 23.1863 12.8136 20.5 9.49985 20.5C8.94757 20.5 8.49985 20.0522 8.49985 19.5C8.49985 18.9477 8.94757 18.5 9.49985 18.5C12.8136 18.5 15.4999 15.8137 15.4999 12.5C15.4999 11.9477 15.9476 11.5 16.4999 11.5Z" fill="url(#paint0_linear_1251_2372)"/>
<defs>
<linearGradient id="paint0_linear_1251_2372" x1="0" y1="0" x2="41.5678" y2="8.37936" gradientUnits="userSpaceOnUse">
<stop stop-color="#FFAB0F"/>
<stop offset="0.993998" stop-color="#FF0F7B"/>
</linearGradient>
</defs>
</svg>
